<?xml version="1.0" encoding="UTF-8"?>
<svg xmlns="http://www.w3.org/2000/svg" xmlns:xlink="http://www.w3.org/1999/xlink" width="90px" height="32px" viewBox="0 0 89 32" version="1.1">
<g id="surface1">
<path style=" stroke:none;fill-rule:nonzero;fill:rgb(0%,0%,0%);fill-opacity:1;" d="M 32.257812 8.1875 C 32.242188 8.199219 32.230469 11.78125 32.230469 16.140625 L 32.230469 24.0625 L 34.773438 24.0625 L 34.785156 18.003906 L 34.804688 11.941406 L 37.125 16.148438 L 39.445312 20.351562 L 40.648438 20.339844 L 41.847656 20.320312 L 44.117188 16.203125 C 45.371094 13.9375 46.425781 12.050781 46.464844 12.011719 C 46.515625 11.960938 46.535156 13.53125 46.535156 17.921875 C 46.535156 21.210938 46.535156 23.941406 46.535156 23.980469 C 46.535156 24.042969 46.832031 24.0625 47.804688 24.0625 L 49.078125 24.0625 L 49.078125 16.128906 C 49.078125 10.878906 49.058594 8.191406 49.011719 8.191406 C 48.980469 8.1875 48.675781 8.1875 48.347656 8.1875 C 48.015625 8.1875 47.347656 8.1875 46.859375 8.191406 L 45.976562 8.191406 L 43.347656 12.992188 C 41.898438 15.628906 40.699219 17.792969 40.671875 17.792969 C 40.652344 17.792969 40.519531 17.582031 40.378906 17.324219 C 40 16.613281 35.398438 8.222656 35.371094 8.199219 C 35.347656 8.167969 32.289062 8.152344 32.257812 8.1875 Z M 32.257812 8.1875 "/>
<path style=" stroke:none;fill-rule:nonzero;fill:rgb(0%,0%,0%);fill-opacity:1;" d="M 10.449219 8.609375 C 8.742188 8.980469 7.226562 10.398438 6.160156 12.632812 C 4.996094 15.058594 4.582031 18.277344 5.15625 20.410156 C 5.53125 21.8125 6.441406 22.886719 7.589844 23.300781 C 8.1875 23.511719 9.496094 23.550781 10.089844 23.367188 C 11.652344 22.886719 12.789062 21.523438 15.160156 17.292969 C 15.925781 15.921875 16.117188 15.621094 16.179688 15.691406 C 16.222656 15.738281 16.757812 16.609375 17.363281 17.632812 C 19.191406 20.730469 20.007812 21.875 20.882812 22.585938 C 21.730469 23.269531 22.359375 23.488281 23.476562 23.488281 C 24.613281 23.488281 25.339844 23.199219 26.019531 22.46875 C 26.917969 21.511719 27.335938 20.132812 27.335938 18.175781 C 27.328125 15.621094 26.660156 13.230469 25.429688 11.328125 C 24.90625 10.527344 23.914062 9.542969 23.261719 9.164062 C 21.003906 7.886719 18.949219 8.503906 16.890625 11.097656 L 16.441406 11.667969 L 16.121094 11.289062 C 15.5625 10.617188 14.589844 9.695312 14.105469 9.375 C 12.980469 8.628906 11.644531 8.34375 10.449219 8.609375 Z M 21.628906 10.566406 C 22.601562 10.894531 23.4375 11.75 24.113281 13.09375 C 25.125 15.117188 25.554688 18.679688 24.964844 20.113281 C 24.90625 20.242188 24.75 20.472656 24.597656 20.640625 C 24.015625 21.273438 23.089844 21.253906 22.34375 20.601562 C 21.84375 20.152344 20.78125 18.566406 19.101562 15.742188 C 18.652344 14.988281 18.117188 14.113281 17.914062 13.804688 C 17.703125 13.492188 17.550781 13.203125 17.566406 13.152344 C 17.632812 12.972656 18.378906 11.972656 18.742188 11.578125 C 19.675781 10.558594 20.621094 10.226562 21.628906 10.566406 Z M 12.175781 11.105469 C 12.617188 11.257812 13.058594 11.566406 13.589844 12.101562 C 14.082031 12.59375 14.9375 13.683594 14.9375 13.816406 C 14.9375 13.894531 14.1875 15.085938 12.371094 17.90625 C 10.722656 20.460938 10.074219 21.089844 9.050781 21.082031 C 8.511719 21.082031 8.136719 20.890625 7.824219 20.46875 C 7.121094 19.5 7.152344 17.082031 7.890625 14.785156 C 8.523438 12.8125 9.597656 11.417969 10.761719 11.035156 C 11.09375 10.925781 11.734375 10.957031 12.175781 11.105469 Z M 12.175781 11.105469 "/>
<path style=" stroke:none;fill-rule:nonzero;fill:rgb(0%,0%,0%);fill-opacity:1;" d="M 65.605469 10.496094 L 65.605469 12.222656 L 63.253906 12.222656 L 63.253906 14.335938 L 65.59375 14.335938 L 65.625 17.644531 C 65.65625 21.363281 65.667969 21.476562 66.121094 22.453125 C 66.554688 23.386719 67.304688 23.96875 68.402344 24.21875 C 69.039062 24.363281 70.339844 24.359375 71.074219 24.203125 L 71.613281 24.097656 L 71.652344 21.996094 L 71.347656 22.042969 C 70.101562 22.222656 69.234375 22.125 68.785156 21.773438 C 68.5 21.542969 68.230469 21.003906 68.148438 20.480469 C 68.117188 20.242188 68.085938 18.839844 68.085938 17.195312 L 68.085938 14.335938 L 71.644531 14.335938 L 71.644531 12.222656 L 68.085938 12.222656 L 68.085938 8.769531 L 65.605469 8.769531 Z M 65.605469 10.496094 "/>
<path style=" stroke:none;fill-rule:nonzero;fill:rgb(0%,0%,0%);fill-opacity:1;" d="M 55.789062 12.070312 C 53.710938 12.523438 52.117188 14.113281 51.5625 16.289062 C 51.085938 18.175781 51.386719 20.351562 52.3125 21.773438 C 52.929688 22.71875 53.585938 23.296875 54.574219 23.777344 C 56.851562 24.882812 60 24.433594 62.039062 22.707031 C 62.167969 22.59375 62.230469 22.496094 62.199219 22.453125 C 62.160156 22.378906 61.136719 21.105469 60.964844 20.910156 C 60.941406 20.875 60.710938 21.011719 60.457031 21.210938 C 59.597656 21.875 58.886719 22.132812 57.691406 22.1875 C 56.792969 22.226562 56.273438 22.132812 55.664062 21.8125 C 55.171875 21.546875 54.574219 20.945312 54.308594 20.449219 C 54.097656 20.050781 53.824219 19.175781 53.894531 19.109375 C 53.914062 19.089844 55.871094 19.070312 58.25 19.070312 L 62.574219 19.070312 L 62.527344 18.183594 C 62.476562 17.101562 62.355469 16.351562 62.101562 15.585938 C 61.5 13.773438 60.1875 12.511719 58.484375 12.097656 C 57.824219 11.941406 56.46875 11.929688 55.789062 12.070312 Z M 57.597656 14.152344 C 58.929688 14.363281 59.839844 15.378906 60.042969 16.875 L 60.085938 17.214844 L 53.910156 17.214844 L 53.910156 17.070312 C 53.910156 16.851562 54.09375 16.269531 54.269531 15.902344 C 54.84375 14.757812 55.734375 14.167969 57.023438 14.09375 C 57.113281 14.085938 57.367188 14.113281 57.597656 14.152344 Z M 57.597656 14.152344 "/>
<path style=" stroke:none;fill-rule:nonzero;fill:rgb(0%,0%,0%);fill-opacity:1;" d="M 76.984375 12.089844 C 75.007812 12.601562 73.589844 14.136719 73.03125 16.363281 C 72.910156 16.84375 72.882812 17.101562 72.882812 18.113281 C 72.882812 18.847656 72.917969 19.441406 72.96875 19.679688 C 73.476562 22.023438 74.855469 23.636719 76.839844 24.203125 C 77.519531 24.402344 78.816406 24.402344 79.535156 24.203125 C 80.417969 23.960938 81.257812 23.441406 81.804688 22.804688 L 82.0625 22.496094 L 82.070312 23.277344 L 82.070312 24.0625 L 84.488281 24.0625 L 84.488281 12.222656 L 82.070312 12.222656 L 82.070312 13.675781 L 81.613281 13.222656 C 81.117188 12.734375 80.5 12.363281 79.820312 12.148438 C 79.234375 11.957031 77.640625 11.921875 76.984375 12.089844 Z M 79.710938 14.304688 C 80.613281 14.523438 81.464844 15.199219 81.867188 16.019531 L 82.078125 16.449219 L 82.058594 18.222656 L 82.039062 20 L 81.847656 20.34375 C 81.5625 20.875 80.964844 21.441406 80.410156 21.707031 C 79.78125 22.015625 79.355469 22.113281 78.636719 22.097656 C 77.015625 22.078125 75.878906 21.101562 75.492188 19.390625 C 75.351562 18.769531 75.34375 17.605469 75.484375 16.960938 C 75.769531 15.609375 76.691406 14.59375 77.894531 14.296875 C 78.351562 14.1875 79.230469 14.1875 79.710938 14.304688 Z M 79.710938 14.304688 "/>
</g>
</svg>
