<?xml version="1.0" encoding="UTF-8"?>
<svg xmlns="http://www.w3.org/2000/svg" xmlns:xlink="http://www.w3.org/1999/xlink" width="36px" height="21px" viewBox="0 0 36 21" version="1.1">
<g id="surface1">
<path style=" stroke:none;fill-rule:nonzero;fill:rgb(0%,0%,0%);fill-opacity:1;" d="M 5.160156 5.390625 L 5.160156 5.734375 L 10.121094 5.734375 L 10.121094 5.046875 L 5.160156 5.046875 Z M 5.160156 5.390625 "/>
<path style=" stroke:none;fill-rule:nonzero;fill:rgb(0%,0%,0%);fill-opacity:1;" d="M 10.878906 5.390625 L 10.878906 5.734375 L 14.398438 5.734375 C 16.335938 5.734375 17.921875 5.726562 17.921875 5.714844 C 17.921875 5.679688 17.390625 5.347656 17.21875 5.269531 C 16.734375 5.0625 16.902344 5.074219 13.792969 5.058594 L 10.878906 5.042969 Z M 10.878906 5.390625 "/>
<path style=" stroke:none;fill-rule:nonzero;fill:rgb(0%,0%,0%);fill-opacity:1;" d="M 19.398438 5.390625 L 19.398438 5.734375 L 23.679688 5.734375 L 23.558594 5.402344 C 23.492188 5.222656 23.441406 5.066406 23.441406 5.058594 C 23.441406 5.050781 22.53125 5.046875 21.421875 5.046875 L 19.398438 5.046875 Z M 19.398438 5.390625 "/>
<path style=" stroke:none;fill-rule:nonzero;fill:rgb(0%,0%,0%);fill-opacity:1;" d="M 26.757812 5.199219 C 26.730469 5.28125 26.675781 5.4375 26.636719 5.539062 L 26.558594 5.734375 L 30.800781 5.734375 L 30.800781 5.046875 L 26.808594 5.046875 Z M 26.757812 5.199219 "/>
<path style=" stroke:none;fill-rule:nonzero;fill:rgb(0%,0%,0%);fill-opacity:1;" d="M 5.160156 6.765625 L 5.160156 7.109375 L 10.121094 7.109375 L 10.121094 6.421875 L 7.640625 6.421875 L 5.160156 6.425781 Z M 5.160156 6.765625 "/>
<path style=" stroke:none;fill-rule:nonzero;fill:rgb(0%,0%,0%);fill-opacity:1;" d="M 11.433594 6.453125 L 10.878906 6.464844 L 10.878906 7.109375 L 18.800781 7.109375 L 18.777344 6.996094 C 18.761719 6.933594 18.710938 6.789062 18.671875 6.671875 C 18.613281 6.507812 18.574219 6.460938 18.507812 6.460938 C 16.941406 6.449219 11.828125 6.445312 11.433594 6.453125 Z M 11.433594 6.453125 "/>
<path style=" stroke:none;fill-rule:nonzero;fill:rgb(0%,0%,0%);fill-opacity:1;" d="M 19.414062 6.457031 C 19.40625 6.464844 19.398438 6.617188 19.398438 6.792969 L 19.398438 7.109375 L 24.15625 7.109375 L 24.050781 6.792969 C 23.996094 6.625 23.945312 6.476562 23.941406 6.46875 C 23.925781 6.453125 19.4375 6.441406 19.414062 6.457031 Z M 19.414062 6.457031 "/>
<path style=" stroke:none;fill-rule:nonzero;fill:rgb(0%,0%,0%);fill-opacity:1;" d="M 26.316406 6.464844 C 26.289062 6.480469 26.078125 7.039062 26.078125 7.09375 C 26.078125 7.105469 27.144531 7.109375 28.441406 7.109375 L 30.804688 7.109375 L 30.792969 6.785156 L 30.78125 6.457031 L 28.566406 6.449219 C 27.347656 6.445312 26.335938 6.449219 26.316406 6.464844 Z M 26.316406 6.464844 "/>
<path style=" stroke:none;fill-rule:nonzero;fill:rgb(0%,0%,0%);fill-opacity:1;" d="M 6.601562 8.179688 L 6.601562 8.519531 L 8.71875 8.519531 L 8.71875 7.835938 L 6.601562 7.835938 Z M 6.601562 8.179688 "/>
<path style=" stroke:none;fill-rule:nonzero;fill:rgb(0%,0%,0%);fill-opacity:1;" d="M 12.328125 8.164062 L 12.339844 8.5 L 13.390625 8.511719 L 14.441406 8.519531 L 14.441406 7.835938 L 12.316406 7.835938 Z M 12.328125 8.164062 "/>
<path style=" stroke:none;fill-rule:nonzero;fill:rgb(0%,0%,0%);fill-opacity:1;" d="M 16.601562 8.179688 L 16.601562 8.519531 L 18.714844 8.519531 L 18.78125 8.3125 C 18.8125 8.199219 18.839844 8.039062 18.839844 7.96875 L 18.839844 7.835938 L 16.601562 7.835938 Z M 16.601562 8.179688 "/>
<path style=" stroke:none;fill-rule:nonzero;fill:rgb(0%,0%,0%);fill-opacity:1;" d="M 20.847656 8.164062 L 20.859375 8.5 L 22.753906 8.511719 C 23.789062 8.515625 24.640625 8.507812 24.636719 8.492188 C 24.636719 8.472656 24.585938 8.324219 24.523438 8.15625 L 24.414062 7.855469 L 22.625 7.84375 L 20.835938 7.835938 Z M 20.847656 8.164062 "/>
<path style=" stroke:none;fill-rule:nonzero;fill:rgb(0%,0%,0%);fill-opacity:1;" d="M 25.707031 8.144531 C 25.648438 8.320312 25.601562 8.472656 25.601562 8.488281 C 25.601562 8.507812 26.457031 8.519531 27.5 8.519531 L 29.398438 8.519531 L 29.398438 7.835938 L 25.820312 7.835938 Z M 25.707031 8.144531 "/>
<path style=" stroke:none;fill-rule:nonzero;fill:rgb(0%,0%,0%);fill-opacity:1;" d="M 6.601562 9.550781 L 6.601562 9.894531 L 8.71875 9.894531 L 8.71875 9.207031 L 6.601562 9.207031 Z M 6.601562 9.550781 "/>
<path style=" stroke:none;fill-rule:nonzero;fill:rgb(0%,0%,0%);fill-opacity:1;" d="M 12.320312 9.550781 L 12.320312 9.894531 L 17.808594 9.894531 L 17.957031 9.765625 C 18.117188 9.625 18.398438 9.289062 18.398438 9.238281 C 18.398438 9.21875 17.03125 9.207031 15.359375 9.207031 L 12.320312 9.207031 Z M 12.320312 9.550781 "/>
<path style=" stroke:none;fill-rule:nonzero;fill:rgb(0%,0%,0%);fill-opacity:1;" d="M 20.839844 9.550781 L 20.839844 9.894531 L 22.960938 9.894531 L 22.960938 9.742188 C 22.960938 9.515625 23.007812 9.503906 23.085938 9.699219 L 23.152344 9.875 L 27.101562 9.875 L 27.160156 9.699219 C 27.234375 9.480469 27.28125 9.480469 27.28125 9.710938 L 27.28125 9.894531 L 29.398438 9.894531 L 29.398438 9.207031 L 25.363281 9.207031 L 25.28125 9.4375 C 25.234375 9.566406 25.1875 9.695312 25.179688 9.726562 C 25.148438 9.820312 25.089844 9.738281 25 9.46875 L 24.910156 9.207031 L 20.839844 9.207031 Z M 20.839844 9.550781 "/>
<path style=" stroke:none;fill-rule:nonzero;fill:rgb(0%,0%,0%);fill-opacity:1;" d="M 6.601562 10.925781 L 6.601562 11.265625 L 8.71875 11.265625 L 8.71875 10.582031 L 6.601562 10.582031 Z M 6.601562 10.925781 "/>
<path style=" stroke:none;fill-rule:nonzero;fill:rgb(0%,0%,0%);fill-opacity:1;" d="M 12.320312 10.925781 L 12.320312 11.265625 L 15.359375 11.265625 C 17.03125 11.265625 18.398438 11.253906 18.398438 11.234375 C 18.398438 11.191406 18.101562 10.832031 17.949219 10.699219 L 17.820312 10.582031 L 12.320312 10.582031 Z M 12.320312 10.925781 "/>
<path style=" stroke:none;fill-rule:nonzero;fill:rgb(0%,0%,0%);fill-opacity:1;" d="M 20.839844 10.925781 L 20.839844 11.265625 L 22.960938 11.265625 L 22.960938 10.582031 L 20.839844 10.582031 Z M 20.839844 10.925781 "/>
<path style=" stroke:none;fill-rule:nonzero;fill:rgb(0%,0%,0%);fill-opacity:1;" d="M 23.441406 10.609375 C 23.441406 10.628906 23.488281 10.78125 23.546875 10.957031 L 23.660156 11.265625 L 25.140625 11.257812 L 26.617188 11.246094 L 26.726562 10.945312 C 26.789062 10.777344 26.839844 10.628906 26.839844 10.609375 C 26.839844 10.59375 26.074219 10.582031 25.140625 10.582031 C 24.203125 10.582031 23.441406 10.59375 23.441406 10.609375 Z M 23.441406 10.609375 "/>
<path style=" stroke:none;fill-rule:nonzero;fill:rgb(0%,0%,0%);fill-opacity:1;" d="M 27.28125 10.925781 L 27.28125 11.265625 L 29.398438 11.265625 L 29.398438 10.582031 L 27.28125 10.582031 Z M 27.28125 10.925781 "/>
<path style=" stroke:none;fill-rule:nonzero;fill:rgb(0%,0%,0%);fill-opacity:1;" d="M 6.601562 12.296875 L 6.601562 12.640625 L 8.71875 12.640625 L 8.71875 11.953125 L 6.601562 11.953125 Z M 6.601562 12.296875 "/>
<path style=" stroke:none;fill-rule:nonzero;fill:rgb(0%,0%,0%);fill-opacity:1;" d="M 12.320312 12.296875 L 12.320312 12.640625 L 14.441406 12.640625 L 14.441406 11.953125 L 12.320312 11.953125 Z M 12.320312 12.296875 "/>
<path style=" stroke:none;fill-rule:nonzero;fill:rgb(0%,0%,0%);fill-opacity:1;" d="M 16.601562 12.296875 L 16.601562 12.640625 L 18.839844 12.640625 L 18.839844 12.507812 C 18.839844 12.433594 18.8125 12.277344 18.78125 12.164062 L 18.714844 11.953125 L 16.601562 11.953125 Z M 16.601562 12.296875 "/>
<path style=" stroke:none;fill-rule:nonzero;fill:rgb(0%,0%,0%);fill-opacity:1;" d="M 20.839844 12.296875 L 20.839844 12.640625 L 22.960938 12.640625 L 22.960938 11.953125 L 20.839844 11.953125 Z M 20.839844 12.296875 "/>
<path style=" stroke:none;fill-rule:nonzero;fill:rgb(0%,0%,0%);fill-opacity:1;" d="M 23.921875 11.980469 C 23.921875 12 23.96875 12.152344 24.03125 12.324219 L 24.140625 12.640625 L 25.136719 12.632812 L 26.128906 12.621094 L 26.21875 12.378906 C 26.269531 12.246094 26.320312 12.09375 26.335938 12.046875 L 26.363281 11.957031 L 25.144531 11.953125 C 24.46875 11.953125 23.921875 11.964844 23.921875 11.980469 Z M 23.921875 11.980469 "/>
<path style=" stroke:none;fill-rule:nonzero;fill:rgb(0%,0%,0%);fill-opacity:1;" d="M 27.28125 12.296875 L 27.28125 12.640625 L 29.398438 12.640625 L 29.398438 11.953125 L 27.28125 11.953125 Z M 27.28125 12.296875 "/>
<path style=" stroke:none;fill-rule:nonzero;fill:rgb(0%,0%,0%);fill-opacity:1;" d="M 5.207031 13.699219 L 5.21875 14.035156 L 7.691406 14.046875 L 10.160156 14.054688 L 10.160156 13.367188 L 5.195312 13.367188 Z M 5.207031 13.699219 "/>
<path style=" stroke:none;fill-rule:nonzero;fill:rgb(0%,0%,0%);fill-opacity:1;" d="M 10.878906 13.710938 L 10.878906 14.054688 L 14.726562 14.046875 L 18.578125 14.035156 L 18.664062 13.8125 C 18.710938 13.691406 18.761719 13.539062 18.777344 13.476562 L 18.800781 13.367188 L 10.878906 13.367188 Z M 10.878906 13.710938 "/>
<path style=" stroke:none;fill-rule:nonzero;fill:rgb(0%,0%,0%);fill-opacity:1;" d="M 19.449219 13.699219 L 19.460938 14.035156 L 21.210938 14.046875 L 22.960938 14.054688 L 22.960938 13.367188 L 19.4375 13.367188 Z M 19.449219 13.699219 "/>
<path style=" stroke:none;fill-rule:nonzero;fill:rgb(0%,0%,0%);fill-opacity:1;" d="M 24.476562 13.558594 C 24.515625 13.667969 24.570312 13.820312 24.597656 13.898438 L 24.648438 14.054688 L 25.121094 14.054688 C 25.449219 14.054688 25.605469 14.039062 25.628906 14 C 25.667969 13.953125 25.839844 13.460938 25.839844 13.398438 C 25.839844 13.382812 25.515625 13.367188 25.121094 13.367188 L 24.398438 13.367188 Z M 24.476562 13.558594 "/>
<path style=" stroke:none;fill-rule:nonzero;fill:rgb(0%,0%,0%);fill-opacity:1;" d="M 27.28125 13.710938 L 27.28125 14.054688 L 30.839844 14.054688 L 30.839844 13.367188 L 27.28125 13.367188 Z M 27.28125 13.710938 "/>
<path style=" stroke:none;fill-rule:nonzero;fill:rgb(0%,0%,0%);fill-opacity:1;" d="M 5.199219 15.082031 L 5.199219 15.425781 L 10.160156 15.425781 L 10.160156 14.742188 L 5.199219 14.742188 Z M 5.199219 15.082031 "/>
<path style=" stroke:none;fill-rule:nonzero;fill:rgb(0%,0%,0%);fill-opacity:1;" d="M 10.878906 15.082031 L 10.878906 15.429688 L 13.773438 15.417969 L 16.660156 15.40625 L 16.980469 15.292969 C 17.285156 15.183594 17.621094 15.003906 17.839844 14.820312 L 17.941406 14.742188 L 10.878906 14.742188 Z M 10.878906 15.082031 "/>
<path style=" stroke:none;fill-rule:nonzero;fill:rgb(0%,0%,0%);fill-opacity:1;" d="M 19.441406 15.082031 L 19.441406 15.425781 L 22.960938 15.425781 L 22.960938 14.742188 L 19.441406 14.742188 Z M 19.441406 15.082031 "/>
<path style=" stroke:none;fill-rule:nonzero;fill:rgb(0%,0%,0%);fill-opacity:1;" d="M 24.9375 14.839844 C 24.996094 15.070312 25.132812 15.390625 25.160156 15.359375 C 25.175781 15.34375 25.234375 15.191406 25.292969 15.03125 L 25.398438 14.742188 L 25.15625 14.742188 C 24.914062 14.742188 24.910156 14.742188 24.9375 14.839844 Z M 24.9375 14.839844 "/>
<path style=" stroke:none;fill-rule:nonzero;fill:rgb(0%,0%,0%);fill-opacity:1;" d="M 27.28125 15.082031 L 27.28125 15.425781 L 30.839844 15.425781 L 30.839844 14.742188 L 27.28125 14.742188 Z M 27.28125 15.082031 "/>
</g>
</svg>
