<?xml version="1.0" encoding="UTF-8"?>
<svg xmlns="http://www.w3.org/2000/svg" xmlns:xlink="http://www.w3.org/1999/xlink" width="183px" height="21px" viewBox="0 0 183 21" version="1.1">
<g id="surface1">
<path style=" stroke:none;fill-rule:nonzero;fill:rgb(0%,0%,0%);fill-opacity:1;" d="M 5.183594 0.078125 C 4.390625 0.207031 3.765625 0.523438 3.296875 1.039062 C 2.679688 1.707031 2.4375 2.601562 2.429688 4.175781 L 2.429688 5.09375 L 1.464844 5.09375 C 0.914062 5.09375 0.4375 5.128906 0.335938 5.171875 C 0.0351562 5.308594 -0.09375 5.789062 0.078125 6.109375 C 0.222656 6.375 0.570312 6.453125 1.644531 6.453125 L 2.644531 6.453125 L 2.644531 16.007812 L 2.859375 16.222656 C 3.050781 16.417969 3.117188 16.4375 3.375 16.402344 C 3.53125 16.382812 3.730469 16.296875 3.816406 16.210938 C 3.96875 16.066406 3.96875 16.03125 3.988281 11.261719 L 4.003906 6.460938 L 5.675781 6.441406 C 7.25 6.417969 7.363281 6.410156 7.554688 6.269531 C 7.941406 5.980469 7.925781 5.449219 7.527344 5.183594 C 7.355469 5.070312 7.128906 5.054688 5.660156 5.035156 L 3.988281 5.011719 L 4.023438 3.996094 C 4.066406 2.796875 4.167969 2.429688 4.582031 2.015625 C 5.0625 1.535156 6.039062 1.328125 6.949219 1.5 C 7.804688 1.671875 8.042969 1.902344 8.441406 2.976562 C 8.621094 3.457031 8.855469 3.65625 9.234375 3.65625 C 9.609375 3.65625 9.765625 3.566406 9.859375 3.292969 C 9.972656 2.949219 9.949219 2.511719 9.792969 1.988281 C 9.609375 1.390625 9.128906 0.839844 8.507812 0.507812 C 7.71875 0.0859375 6.253906 -0.101562 5.183594 0.078125 Z M 5.183594 0.078125 "/>
<path style=" stroke:none;fill-rule:nonzero;fill:rgb(0%,0%,0%);fill-opacity:1;" d="M 83.617188 0.078125 C 83.300781 0.265625 83.28125 0.488281 83.28125 3.40625 L 83.28125 6.175781 L 82.90625 5.886719 C 82.40625 5.507812 81.636719 5.128906 81.0625 4.96875 C 80.707031 4.871094 80.328125 4.839844 79.417969 4.839844 C 78.402344 4.839844 78.160156 4.863281 77.683594 5.007812 C 76.558594 5.328125 75.667969 5.960938 75.25 6.726562 C 74.886719 7.410156 74.84375 7.765625 74.84375 10.578125 C 74.84375 12.628906 74.867188 13.253906 74.953125 13.621094 C 75.34375 15.277344 76.84375 16.265625 79.167969 16.394531 C 80.046875 16.445312 80.898438 16.351562 81.519531 16.136719 C 81.726562 16.066406 82.226562 15.816406 82.621094 15.570312 C 83.023438 15.328125 83.359375 15.132812 83.371094 15.132812 C 83.386719 15.132812 83.421875 15.371094 83.449219 15.648438 C 83.488281 16.09375 83.523438 16.203125 83.6875 16.34375 C 83.914062 16.546875 84.292969 16.515625 84.523438 16.28125 C 84.671875 16.136719 84.671875 16.09375 84.695312 8.476562 C 84.710938 3.191406 84.695312 0.746094 84.636719 0.558594 C 84.507812 0.101562 83.992188 -0.144531 83.617188 0.078125 Z M 81.363281 6.546875 C 81.886719 6.726562 82.621094 7.128906 83.121094 7.515625 L 83.351562 7.6875 L 83.351562 13.46875 L 83.015625 13.757812 C 81.722656 14.832031 81.242188 15.019531 79.8125 15.019531 C 78.160156 15.019531 77.082031 14.558594 76.609375 13.671875 C 76.460938 13.382812 76.453125 13.289062 76.429688 10.84375 C 76.410156 7.941406 76.417969 7.851562 76.960938 7.25 C 77.582031 6.554688 78.375 6.3125 79.847656 6.339844 C 80.671875 6.355469 80.890625 6.382812 81.363281 6.546875 Z M 81.363281 6.546875 "/>
<path style=" stroke:none;fill-rule:nonzero;fill:rgb(0%,0%,0%);fill-opacity:1;" d="M 157.480469 0.15625 C 157.058594 0.359375 155.855469 1.570312 155.214844 2.4375 C 153.519531 4.742188 152.832031 6.828125 152.832031 9.710938 C 152.832031 12.191406 153.285156 14.316406 154.191406 16.128906 C 155.105469 17.964844 156.835938 20.003906 157.730469 20.296875 C 158.023438 20.398438 158.28125 20.296875 158.503906 19.996094 C 158.753906 19.652344 158.636719 19.386719 157.867188 18.570312 C 156.316406 16.917969 155.535156 15.664062 154.949219 13.878906 C 154.476562 12.414062 154.257812 10.476562 154.390625 8.90625 C 154.648438 5.953125 155.601562 3.945312 157.835938 1.613281 C 158.710938 0.703125 158.765625 0.566406 158.417969 0.207031 C 158.160156 -0.0429688 157.921875 -0.0585938 157.480469 0.15625 Z M 157.480469 0.15625 "/>
<path style=" stroke:none;fill-rule:nonzero;fill:rgb(0%,0%,0%);fill-opacity:1;" d="M 177.425781 0.09375 C 177.21875 0.199219 177.101562 0.480469 177.160156 0.730469 C 177.1875 0.832031 177.601562 1.328125 178.082031 1.84375 C 179.125 2.953125 179.65625 3.671875 180.175781 4.675781 C 180.621094 5.535156 180.925781 6.410156 181.140625 7.421875 C 181.363281 8.449219 181.414062 10.550781 181.253906 11.710938 C 180.882812 14.367188 179.933594 16.367188 178.132812 18.246094 C 177.71875 18.683594 177.324219 19.121094 177.261719 19.222656 C 176.953125 19.664062 177.238281 20.296875 177.746094 20.296875 C 178.144531 20.296875 178.554688 20.039062 179.21875 19.371094 C 180.0625 18.519531 180.90625 17.347656 181.457031 16.289062 C 182.476562 14.285156 182.886719 12.414062 182.886719 9.71875 C 182.886719 7.859375 182.664062 6.589844 182.09375 5.164062 C 181.339844 3.292969 179.398438 0.746094 178.273438 0.179688 C 177.890625 -0.0234375 177.6875 -0.0429688 177.425781 0.09375 Z M 177.425781 0.09375 "/>
<path style=" stroke:none;fill-rule:nonzero;fill:rgb(0%,0%,0%);fill-opacity:1;" d="M 54.078125 0.71875 C 51.53125 1.074219 50.3125 2.394531 50.109375 4.976562 C 50.023438 6.097656 50.023438 11.359375 50.109375 12.328125 C 50.230469 13.691406 50.660156 14.550781 51.527344 15.191406 C 52.148438 15.648438 52.621094 15.886719 53.296875 16.074219 C 54.320312 16.351562 56.09375 16.367188 57.128906 16.101562 C 58.765625 15.683594 59.917969 14.523438 60.117188 13.074219 C 60.234375 12.234375 60.097656 11.839844 59.652344 11.691406 C 59.453125 11.625 59.347656 11.625 59.183594 11.691406 C 58.910156 11.804688 58.851562 11.921875 58.722656 12.601562 C 58.472656 13.929688 57.851562 14.53125 56.464844 14.816406 C 56.015625 14.902344 55.671875 14.925781 55.078125 14.898438 C 53.484375 14.816406 52.570312 14.292969 52.082031 13.183594 C 51.734375 12.394531 51.71875 12.179688 51.71875 8.425781 C 51.71875 5.320312 51.734375 4.855469 51.839844 4.425781 C 52.269531 2.769531 53.25 2.085938 55.1875 2.078125 C 56.402344 2.078125 57.195312 2.289062 57.746094 2.761719 C 58.039062 3.003906 58.394531 3.714844 58.644531 4.527344 C 58.859375 5.25 59.082031 5.523438 59.445312 5.523438 C 59.984375 5.523438 60.246094 4.976562 60.117188 4.109375 C 59.882812 2.425781 58.851562 1.320312 57.074219 0.851562 C 56.429688 0.6875 54.808594 0.609375 54.078125 0.71875 Z M 54.078125 0.71875 "/>
<path style=" stroke:none;fill-rule:nonzero;fill:rgb(0%,0%,0%);fill-opacity:1;" d="M 104.015625 0.71875 C 101.964844 1.003906 100.714844 2.066406 100.242188 3.910156 C 100.128906 4.359375 100.113281 4.8125 100.113281 8.605469 C 100.113281 13.246094 100.097656 13.109375 100.59375 14.078125 C 101.101562 15.097656 102.324219 15.894531 103.796875 16.179688 C 104.539062 16.324219 106.113281 16.324219 106.832031 16.171875 C 108.636719 15.800781 109.800781 14.761719 110.085938 13.28125 C 110.285156 12.273438 110.042969 11.65625 109.441406 11.65625 C 109.015625 11.65625 108.878906 11.839844 108.71875 12.617188 C 108.527344 13.554688 108.328125 13.90625 107.742188 14.328125 C 106.777344 15.019531 104.53125 15.117188 103.351562 14.515625 C 102.628906 14.152344 102.179688 13.585938 101.90625 12.703125 C 101.773438 12.257812 101.765625 12 101.738281 8.773438 C 101.707031 4.925781 101.742188 4.46875 102.136719 3.628906 C 102.644531 2.546875 103.589844 2.078125 105.261719 2.078125 C 106.054688 2.078125 106.804688 2.214844 107.261719 2.4375 C 107.898438 2.746094 108.328125 3.390625 108.640625 4.511719 C 108.886719 5.359375 109.113281 5.585938 109.621094 5.492188 C 110.136719 5.394531 110.292969 4.710938 110.050781 3.664062 C 109.714844 2.253906 108.675781 1.277344 107.046875 0.851562 C 106.390625 0.6875 104.773438 0.609375 104.015625 0.71875 Z M 104.015625 0.71875 "/>
<path style=" stroke:none;fill-rule:nonzero;fill:rgb(0%,0%,0%);fill-opacity:1;" d="M 166.867188 1.816406 C 166.835938 3.730469 165.878906 6.023438 163.828125 9.109375 C 162.742188 10.730469 162.375 11.46875 162.167969 12.5 C 161.871094 13.933594 162.164062 15.347656 163.019531 16.648438 C 163.382812 17.183594 164.148438 18.007812 164.699219 18.433594 L 165.023438 18.683594 L 164.820312 18.410156 C 164.121094 17.476562 164.050781 16.222656 164.601562 14.574219 C 164.914062 13.605469 165.40625 12.660156 166.265625 11.351562 C 167.101562 10.078125 167.375 9.617188 167.800781 8.820312 L 168.125 8.210938 L 168.246094 8.5 C 168.617188 9.386719 168.710938 10.433594 168.523438 11.796875 C 168.324219 13.289062 168.453125 13.972656 169.039062 14.480469 C 169.453125 14.851562 169.875 14.953125 170.753906 14.898438 L 171.425781 14.847656 L 171.5625 15.074219 C 171.992188 15.785156 171.675781 17.054688 170.777344 18.253906 C 170.582031 18.511719 170.449219 18.71875 170.476562 18.71875 C 170.597656 18.71875 171.734375 17.636719 172.171875 17.105469 C 172.742188 16.417969 173.371094 15.183594 173.527344 14.453125 C 173.769531 13.296875 173.636719 12.007812 173.140625 10.816406 C 172.914062 10.261719 172.113281 8.964844 172.003906 8.964844 C 171.96875 8.964844 171.847656 9.136719 171.742188 9.339844 C 171.277344 10.207031 170.949219 10.542969 170.574219 10.542969 C 170.261719 10.542969 170.238281 10.378906 170.417969 9.480469 C 170.753906 7.824219 170.675781 6.492188 170.167969 5.257812 C 169.910156 4.648438 169.488281 3.902344 169.109375 3.40625 C 168.824219 3.035156 167.617188 1.785156 167.203125 1.433594 L 166.878906 1.160156 Z M 166.867188 1.816406 "/>
<path style=" stroke:none;fill-rule:nonzero;fill:rgb(0%,0%,0%);fill-opacity:1;" d="M 116.164062 4.734375 C 114.460938 4.933594 113.382812 5.585938 112.800781 6.761719 C 112.546875 7.292969 112.445312 8.039062 112.585938 8.390625 C 112.695312 8.65625 112.988281 8.820312 113.324219 8.820312 C 113.710938 8.820312 113.859375 8.640625 113.980469 8.039062 C 114.125 7.359375 114.261719 7.070312 114.582031 6.804688 C 115.175781 6.320312 116.5 6.082031 117.835938 6.226562 C 119.078125 6.363281 119.808594 6.742188 120.15625 7.421875 C 120.328125 7.753906 120.34375 7.859375 120.367188 8.921875 L 120.394531 10.0625 L 120.222656 10.011719 C 118.386719 9.480469 118.164062 9.445312 116.984375 9.445312 C 115.941406 9.4375 115.789062 9.460938 115.269531 9.632812 C 113.332031 10.269531 112.316406 11.734375 112.582031 13.496094 C 112.859375 15.3125 114.394531 16.34375 116.828125 16.351562 C 117.628906 16.351562 118.535156 16.210938 118.914062 16.015625 C 119.027344 15.949219 119.421875 15.714844 119.777344 15.484375 C 120.136719 15.246094 120.453125 15.0625 120.472656 15.0625 C 120.5 15.0625 120.523438 15.125 120.523438 15.203125 C 120.523438 15.484375 120.886719 15.742188 121.628906 15.992188 C 122.824219 16.386719 123.238281 16.296875 123.238281 15.636719 C 123.238281 15.203125 123.140625 15.082031 122.589844 14.816406 C 122.273438 14.660156 122.09375 14.53125 122.023438 14.378906 C 121.9375 14.199219 121.910156 13.589844 121.875 10.792969 C 121.832031 7.1875 121.832031 7.121094 121.4375 6.363281 C 121.238281 5.953125 120.75 5.464844 120.378906 5.273438 C 119.386719 4.769531 117.707031 4.554688 116.164062 4.734375 Z M 118.5625 11.007812 C 118.972656 11.074219 119.550781 11.195312 119.859375 11.28125 L 120.414062 11.441406 L 120.4375 12.480469 L 120.457031 13.527344 L 120.222656 13.699219 C 119.40625 14.308594 118.722656 14.722656 118.335938 14.839844 C 117.328125 15.15625 116.089844 15.097656 115.234375 14.695312 C 114.375 14.292969 114.097656 13.871094 114.089844 12.996094 C 114.089844 12.105469 114.511719 11.511719 115.367188 11.195312 C 116.15625 10.902344 117.347656 10.828125 118.5625 11.007812 Z M 118.5625 11.007812 "/>
<path style=" stroke:none;fill-rule:nonzero;fill:rgb(0%,0%,0%);fill-opacity:1;" d="M 137.980469 4.785156 C 137.929688 4.804688 137.835938 4.921875 137.765625 5.042969 C 137.648438 5.257812 137.644531 5.816406 137.621094 12.585938 C 137.609375 17.835938 137.621094 20.011719 137.679688 20.277344 C 137.863281 21.136719 138.742188 21.179688 138.957031 20.339844 C 139.007812 20.132812 139.039062 19.15625 139.039062 17.609375 L 139.039062 15.191406 L 139.273438 15.347656 C 141.246094 16.675781 144.484375 16.777344 146.09375 15.554688 C 146.621094 15.15625 147.078125 14.507812 147.277344 13.886719 C 147.429688 13.398438 147.4375 13.277344 147.4375 10.578125 C 147.4375 8.070312 147.421875 7.738281 147.308594 7.351562 C 147.113281 6.71875 146.851562 6.28125 146.4375 5.886719 C 145.714844 5.199219 144.8125 4.882812 143.417969 4.828125 C 142.132812 4.769531 141.375 4.933594 139.867188 5.601562 C 139.507812 5.765625 139.171875 5.894531 139.117188 5.902344 C 139.058594 5.910156 138.953125 5.738281 138.851562 5.449219 C 138.628906 4.835938 138.359375 4.625 137.980469 4.785156 Z M 144.132812 6.417969 C 144.941406 6.632812 145.476562 7.007812 145.777344 7.566406 C 145.929688 7.847656 145.933594 7.917969 145.933594 10.652344 L 145.933594 13.449219 L 145.742188 13.777344 C 145.257812 14.601562 144.070312 15.054688 142.609375 14.96875 C 141.855469 14.925781 140.917969 14.625 139.964844 14.113281 C 139.59375 13.914062 139.214844 13.714844 139.128906 13.671875 L 138.964844 13.589844 L 138.964844 7.910156 L 139.414062 7.480469 C 140.171875 6.75 140.722656 6.460938 141.644531 6.3125 C 142.226562 6.226562 143.625 6.28125 144.132812 6.417969 Z M 144.132812 6.417969 "/>
<path style=" stroke:none;fill-rule:nonzero;fill:rgb(0%,0%,0%);fill-opacity:1;" d="M 18.972656 4.898438 C 18.464844 5.070312 17.820312 5.457031 17.378906 5.851562 C 17.148438 6.066406 16.933594 6.238281 16.914062 6.238281 C 16.890625 6.238281 16.871094 6.117188 16.871094 5.96875 C 16.871094 5.628906 16.671875 5.226562 16.441406 5.113281 C 16.210938 5 13.246094 4.984375 12.851562 5.097656 C 12.402344 5.222656 12.222656 5.753906 12.507812 6.117188 C 12.722656 6.390625 13.058594 6.453125 14.316406 6.453125 L 15.441406 6.453125 L 15.425781 10.628906 L 15.40625 14.808594 L 14.082031 14.847656 C 13.183594 14.867188 12.710938 14.910156 12.59375 14.976562 C 12.238281 15.175781 12.214844 15.792969 12.558594 16.066406 C 12.738281 16.210938 12.824219 16.210938 16.347656 16.210938 C 20.042969 16.210938 20.144531 16.203125 20.351562 15.929688 C 20.472656 15.765625 20.464844 15.269531 20.335938 15.082031 C 20.160156 14.832031 19.785156 14.773438 18.285156 14.773438 L 16.871094 14.773438 L 16.871094 8.15625 L 17.164062 7.765625 C 17.605469 7.195312 18.207031 6.675781 18.691406 6.441406 C 19.035156 6.28125 19.222656 6.238281 19.628906 6.238281 C 20.453125 6.238281 20.6875 6.46875 21.03125 7.59375 C 21.230469 8.242188 21.429688 8.433594 21.839844 8.363281 C 22.347656 8.261719 22.511719 7.59375 22.265625 6.632812 C 22.074219 5.910156 21.617188 5.351562 20.945312 5.035156 C 20.472656 4.8125 19.457031 4.742188 18.972656 4.898438 Z M 18.972656 4.898438 "/>
<path style=" stroke:none;fill-rule:nonzero;fill:rgb(0%,0%,0%);fill-opacity:1;" d="M 28.628906 4.921875 C 27.371094 5.113281 26.636719 5.457031 25.890625 6.203125 C 25.3125 6.792969 25.070312 7.242188 24.957031 7.960938 C 24.855469 8.5625 24.855469 12.445312 24.949219 13.175781 C 25.148438 14.679688 26.171875 15.773438 27.75 16.164062 C 28.972656 16.472656 30.796875 16.488281 32.039062 16.214844 C 33.246094 15.945312 34.382812 15.304688 34.839844 14.644531 C 35.132812 14.222656 35.183594 13.691406 34.957031 13.449219 C 34.675781 13.152344 34.40625 13.210938 33.8125 13.691406 C 33.132812 14.242188 32.425781 14.632812 31.730469 14.816406 C 31.074219 15.003906 28.972656 15.003906 28.316406 14.816406 C 27.722656 14.652344 27.371094 14.472656 27.015625 14.152344 C 26.476562 13.664062 26.304688 13.082031 26.304688 11.710938 L 26.304688 10.902344 L 30.296875 10.902344 C 34.097656 10.902344 34.285156 10.894531 34.5 10.765625 C 34.835938 10.558594 34.914062 10.25 34.863281 9.222656 C 34.792969 7.507812 34.285156 6.417969 33.210938 5.660156 C 32.167969 4.921875 30.429688 4.640625 28.628906 4.921875 Z M 31.203125 6.375 C 32.597656 6.734375 33.261719 7.53125 33.417969 9.007812 L 33.46875 9.46875 L 29.910156 9.453125 L 26.34375 9.429688 L 26.347656 8.820312 C 26.355469 8.089844 26.5 7.703125 26.957031 7.214844 C 27.292969 6.84375 27.921875 6.511719 28.566406 6.355469 C 29.195312 6.203125 30.589844 6.210938 31.203125 6.375 Z M 31.203125 6.375 "/>
<path style=" stroke:none;fill-rule:nonzero;fill:rgb(0%,0%,0%);fill-opacity:1;" d="M 41.355469 4.882812 C 39.601562 5.121094 38.359375 5.882812 37.773438 7.058594 C 37.40625 7.796875 37.363281 8.261719 37.40625 10.9375 C 37.445312 13.453125 37.480469 13.707031 37.902344 14.503906 C 38.601562 15.828125 40.417969 16.511719 42.925781 16.394531 C 44.59375 16.324219 45.75 15.980469 46.699219 15.277344 C 47.316406 14.816406 47.609375 14.371094 47.609375 13.898438 C 47.609375 13.648438 47.566406 13.511719 47.464844 13.410156 C 47.214844 13.160156 46.957031 13.226562 46.273438 13.742188 C 45.535156 14.292969 44.855469 14.660156 44.226562 14.832031 C 43.585938 15.003906 41.46875 14.996094 40.816406 14.816406 C 40.1875 14.644531 39.710938 14.371094 39.386719 14 C 38.964844 13.527344 38.886719 13.195312 38.886719 11.964844 L 38.886719 10.902344 L 42.8125 10.902344 C 45.136719 10.902344 46.816406 10.871094 46.921875 10.828125 C 47.34375 10.671875 47.496094 10.089844 47.394531 9.035156 C 47.179688 6.742188 46.222656 5.515625 44.285156 5.019531 C 43.613281 4.847656 42.117188 4.777344 41.355469 4.882812 Z M 43.65625 6.355469 C 44.621094 6.578125 45.300781 7.085938 45.648438 7.851562 C 45.828125 8.246094 45.964844 8.828125 45.964844 9.222656 L 45.964844 9.46875 L 38.886719 9.46875 L 38.886719 8.800781 C 38.886719 8.261719 38.917969 8.074219 39.058594 7.78125 C 39.367188 7.113281 40.117188 6.585938 41.097656 6.347656 C 41.660156 6.210938 43.054688 6.210938 43.65625 6.355469 Z M 43.65625 6.355469 "/>
<path style=" stroke:none;fill-rule:nonzero;fill:rgb(0%,0%,0%);fill-opacity:1;" d="M 65.945312 4.882812 C 64.429688 5.113281 63.304688 5.796875 62.8125 6.785156 C 62.464844 7.488281 62.441406 7.722656 62.441406 10.6875 C 62.449219 13.296875 62.457031 13.46875 62.597656 13.890625 C 62.90625 14.816406 63.421875 15.390625 64.300781 15.816406 C 64.992188 16.144531 65.652344 16.289062 66.6875 16.34375 C 70.167969 16.523438 72.011719 15.59375 72.421875 13.453125 C 72.457031 13.261719 72.484375 11.957031 72.484375 10.550781 C 72.484375 8.550781 72.457031 7.898438 72.378906 7.546875 C 72.070312 6.234375 71.175781 5.40625 69.617188 5.011719 C 69.140625 4.890625 68.753906 4.855469 67.695312 4.839844 C 66.964844 4.828125 66.179688 4.839844 65.945312 4.882812 Z M 69.082031 6.382812 C 69.746094 6.554688 70.117188 6.742188 70.441406 7.070312 C 70.957031 7.601562 70.949219 7.558594 70.96875 10.464844 C 70.992188 13.484375 70.984375 13.5625 70.414062 14.128906 C 69.839844 14.710938 69.046875 14.917969 67.425781 14.917969 C 65.535156 14.917969 64.535156 14.515625 64.070312 13.570312 L 63.871094 13.160156 L 63.871094 7.996094 L 64.070312 7.589844 C 64.441406 6.835938 65.164062 6.417969 66.4375 6.238281 C 67.082031 6.148438 68.460938 6.21875 69.082031 6.382812 Z M 69.082031 6.382812 "/>
<path style=" stroke:none;fill-rule:nonzero;fill:rgb(0%,0%,0%);fill-opacity:1;" d="M 91.355469 4.878906 C 89.589844 5.121094 88.3125 5.925781 87.726562 7.15625 L 87.460938 7.710938 L 87.460938 10.507812 C 87.460938 12.679688 87.484375 13.382812 87.5625 13.664062 C 87.90625 14.902344 88.882812 15.816406 90.25 16.164062 C 91.765625 16.554688 93.929688 16.472656 95.394531 15.980469 C 96.96875 15.441406 98.097656 14.070312 97.46875 13.449219 C 97.226562 13.195312 96.960938 13.226562 96.574219 13.519531 C 95.160156 14.625 94.480469 14.898438 92.964844 14.96875 C 91.484375 15.03125 90.527344 14.847656 89.769531 14.34375 C 89.082031 13.886719 88.855469 13.261719 88.855469 11.855469 L 88.855469 10.902344 L 92.824219 10.902344 C 95.660156 10.902344 96.832031 10.878906 96.960938 10.816406 C 97.0625 10.773438 97.210938 10.59375 97.296875 10.414062 C 97.441406 10.128906 97.449219 10.019531 97.410156 9.257812 C 97.390625 8.800781 97.320312 8.21875 97.246094 7.960938 C 96.855469 6.417969 95.851562 5.414062 94.308594 5.011719 C 93.664062 4.847656 92.101562 4.777344 91.355469 4.878906 Z M 93.75 6.375 C 95.132812 6.734375 95.796875 7.546875 95.960938 9.050781 L 96.003906 9.46875 L 88.839844 9.46875 L 88.871094 8.765625 C 88.890625 8.226562 88.933594 7.996094 89.0625 7.761719 C 89.390625 7.113281 90.121094 6.613281 91.070312 6.355469 C 91.65625 6.195312 93.121094 6.210938 93.75 6.375 Z M 93.75 6.375 "/>
<path style=" stroke:none;fill-rule:nonzero;fill:rgb(0%,0%,0%);fill-opacity:1;" d="M 127.355469 4.890625 C 127.171875 4.941406 126.914062 5.128906 126.554688 5.472656 C 126.070312 5.929688 126.027344 5.953125 126.027344 5.789062 C 126.027344 5.0625 125.332031 4.589844 124.960938 5.0625 C 124.8125 5.25 124.8125 5.300781 124.8125 10.570312 C 124.8125 15.484375 124.820312 15.90625 124.941406 16.136719 C 125.175781 16.625 125.933594 16.597656 126.140625 16.09375 C 126.21875 15.902344 126.242188 15.054688 126.242188 11.632812 L 126.242188 7.410156 L 126.699219 6.964844 C 127.234375 6.453125 127.519531 6.3125 128.019531 6.3125 C 128.457031 6.3125 128.714844 6.40625 128.980469 6.65625 C 129.371094 7.035156 129.386719 7.179688 129.386719 11.613281 C 129.386719 14.101562 129.414062 15.773438 129.457031 15.929688 C 129.5 16.074219 129.59375 16.246094 129.671875 16.316406 C 129.851562 16.480469 130.34375 16.488281 130.523438 16.324219 C 130.796875 16.078125 130.816406 15.707031 130.816406 11.433594 L 130.816406 7.285156 L 131.195312 6.921875 C 131.71875 6.410156 132.023438 6.277344 132.652344 6.277344 C 133.277344 6.277344 133.484375 6.398438 133.746094 6.929688 L 133.925781 7.28125 L 133.960938 11.667969 L 133.996094 16.058594 L 134.160156 16.222656 C 134.285156 16.34375 134.40625 16.386719 134.632812 16.386719 C 135.011719 16.386719 135.21875 16.230469 135.320312 15.859375 C 135.421875 15.492188 135.414062 7.257812 135.3125 6.707031 C 135.121094 5.636719 134.527344 5.0625 133.425781 4.871094 C 132.359375 4.683594 131.425781 4.933594 130.722656 5.585938 L 130.289062 6.003906 L 129.859375 5.558594 C 129.316406 5.007812 128.835938 4.796875 128.113281 4.8125 C 127.851562 4.820312 127.515625 4.855469 127.355469 4.890625 Z M 127.355469 4.890625 "/>
</g>
</svg>
